<svg width="28px" height="20px" viewBox="16 206 28 20" version="1.1" xmlns="http://www.w3.org/2000/svg" xmlns:xlink="http://www.w3.org/1999/xlink">
    <path d="M17.349,208.074 L42.912,208.074 C43.464,208.074 43.912,207.626 43.912,207.074 C43.912,206.522 43.464,206.074 42.912,206.074 L17.349,206.074 C16.796,206.074 16.349,206.522 16.349,207.074 C16.349,207.626 16.796,208.074 17.349,208.074"></path>
    <path d="M17.349,216.704 L42.912,216.704 C43.464,216.704 43.912,216.256 43.912,215.704 C43.912,215.151 43.464,214.704 42.912,214.704 L17.349,214.704 C16.796,214.704 16.349,215.151 16.349,215.704 C16.349,216.256 16.796,216.704 17.349,216.704"></path>
    <path d="M17.349,225.334 L42.912,225.334 C43.464,225.334 43.912,224.886 43.912,224.334 C43.912,223.781 43.464,223.334 42.912,223.334 L17.349,223.334 C16.796,223.334 16.349,223.781 16.349,224.334 C16.349,224.886 16.796,225.334 17.349,225.334"></path>
</svg>
